# xmcd CD database file
#
# Track frame offsets:
#	150
#	39067
#	82135
#	134951
#	183411
#	236350
#	298144
#
# Disc length: 4608 seconds
#
# Revision: 0
# Processed by: cddbd v1.5.2PL0 Copyright (c) Steve Scherf et al.
# Submitted via: CDex 1.51
#
DISCID=6311fe07
DTITLE=Arie Ribbens - Arie least Aornt (luisterboek 1)
DYEAR=2005
DGENRE=Country
TTITLE0=n olliekachel en de gevolgen
TTITLE1=de kale plek in het bos
TTITLE2=praotvolk
TTITLE3='n lam in wolvenvacht
TTITLE4='t ende van 'n televisie
TTITLE5=van 'n eenzame eerzame weduwe en 'n bejaorde vrijgezel met 'n jong hart
TTITLE6=geveurlijke inbreker
EXTD=YEAR: 2005
EXTT0=
EXTT1=
EXTT2=
EXTT3=
EXTT4=
EXTT5=
EXTT6=
PLAYORDER=
